<svg width="74" height="54" viewBox="0 0 74 54" fill="none" xmlns="http://www.w3.org/2000/svg">
<circle cx="46.883" cy="26.5414" r="24.2999" stroke="#13351F" stroke-width="4.41816"/>
<path d="M48.3999 2.33398C53.1876 2.75286 57.7437 4.58207 61.4919 7.5903C65.24 10.5985 68.012 14.6507 69.4572 19.2343C70.9024 23.8179 70.956 28.7272 69.6111 33.3412C68.2662 37.9553 65.5833 42.0669 61.9017 45.1562C58.22 48.2455 53.7049 50.1737 48.9274 50.6969C44.1499 51.2201 39.3246 50.3149 35.0615 48.0957C30.7985 45.8765 27.2893 42.443 24.9776 38.2294C22.666 34.0158 21.6557 29.2113 22.0746 24.4235" stroke="#37C058" stroke-width="4.41816" stroke-linecap="round"/>
<path d="M33.0652 31.8634L37.3514 23.5509V23.4415H32.2654V21.9991H39.1287V23.4689L34.9109 31.8634H33.0652ZM43.9365 32.1095C41.9199 32.1095 40.5596 30.879 40.4297 29.2589L40.4229 29.17H42.0498L42.0566 29.2179C42.1865 30.0245 42.9316 30.6671 43.9434 30.6671C45.0986 30.6671 45.8916 29.8536 45.8916 28.6915V28.6779C45.8916 27.5294 45.085 26.7228 43.957 26.7228C43.4033 26.7228 42.9248 26.8868 42.5625 27.215C42.3848 27.3654 42.2207 27.5568 42.1045 27.7755H40.5938L41.0723 21.9991H46.9922V23.4484H42.4463L42.1729 26.4493H42.2891C42.6992 25.7863 43.4648 25.3898 44.3945 25.3898C46.2334 25.3898 47.5664 26.757 47.5664 28.6437V28.6573C47.5664 30.7081 46.0693 32.1095 43.9365 32.1095ZM51.1096 27.3243C49.7287 27.3243 48.8947 26.2784 48.8947 24.5968V24.59C48.8947 22.9083 49.7287 21.8624 51.1096 21.8624C52.4836 21.8624 53.3244 22.9083 53.3244 24.59V24.5968C53.3244 26.2784 52.4836 27.3243 51.1096 27.3243ZM52.34 31.8634H50.9318L57.5969 21.9991H59.0051L52.34 31.8634ZM51.1096 26.3331C51.7316 26.3331 52.094 25.6974 52.094 24.5968V24.59C52.094 23.4825 51.7316 22.8536 51.1096 22.8536C50.4807 22.8536 50.132 23.4825 50.132 24.59V24.5968C50.132 25.6974 50.4807 26.3331 51.1096 26.3331ZM58.8274 32.0001C57.4465 32.0001 56.6057 30.9474 56.6057 29.2657V29.2589C56.6057 27.5773 57.4465 26.5382 58.8274 26.5382C60.2014 26.5382 61.0422 27.5773 61.0422 29.2589V29.2657C61.0422 30.9474 60.2014 32.0001 58.8274 32.0001ZM58.8274 31.0089C59.4494 31.0089 59.8117 30.3732 59.8117 29.2657V29.2589C59.8117 28.1583 59.4494 27.5294 58.8274 27.5294C58.1984 27.5294 57.843 28.1583 57.843 29.2589V29.2657C57.843 30.3732 58.1984 31.0089 58.8274 31.0089Z" fill="#37C058"/>
</svg>
