<svg width="58" height="58" viewBox="0 0 58 58" fill="none" xmlns="http://www.w3.org/2000/svg">
<circle cx="10.5" cy="10.5" r="3.5" fill="white"/>
<g opacity="0.35" filter="url(#filter0_b_68_1681)">
<path fill-rule="evenodd" clip-rule="evenodd" d="M17.9772 8.8134C21.5191 6.87941 25.5074 5.91133 29.5418 6.00638C33.5761 6.10144 37.5144 7.25628 40.9613 9.35494C44.4081 11.4536 47.2421 14.4222 49.1786 17.9626C51.1152 21.5031 52.0861 25.4907 51.994 29.5251C51.9019 33.5596 50.7499 37.4987 48.6537 40.947C47.7931 42.3628 48.2431 44.2083 49.6589 45.0689C51.0747 45.9295 52.9201 45.4795 53.7808 44.0637C56.4238 39.7158 57.8763 34.749 57.9924 29.6621C58.1086 24.5753 56.8844 19.5474 54.4426 15.0833C52.0009 10.6193 48.4276 6.87628 44.0816 4.23014C39.7356 1.584 34.7699 0.127898 29.6831 0.0080462C24.5963 -0.111806 19.5675 1.10882 15.1017 3.54734C14.1291 4.07842 13.1907 4.66319 12.2903 5.29796C14.31 5.99291 15.7979 7.83099 15.981 10.0394C16.6234 9.59825 17.2896 9.18891 17.9772 8.8134ZM10.0394 15.981C7.831 15.7979 5.99292 14.31 5.29796 12.2903C4.92863 12.8142 4.57608 13.3512 4.24105 13.9005C1.59177 18.2446 0.132077 23.2093 0.00854765 28.2959C-0.114982 33.3826 1.102 38.4123 3.53729 42.8799C4.33029 44.3346 6.15246 44.8711 7.60721 44.0781C9.06197 43.2851 9.59844 41.4629 8.80544 40.0082C6.874 36.4649 5.90881 32.4759 6.00678 28.4416C6.10475 24.4073 7.26244 20.4698 9.36359 17.0245C9.57976 16.6701 9.80513 16.3221 10.0394 15.981Z" fill="white"/>
</g>
<g filter="url(#filter1_b_68_1681)">
<path d="M11.4891 34H19.0828V32.5078H13.8719V32.3516L16.2625 29.9688C18.3094 27.9375 18.9031 26.9531 18.9031 25.6719V25.6484C18.9031 23.7891 17.3563 22.4531 15.2547 22.4531C12.9891 22.4531 11.3953 23.9062 11.3875 25.9688L11.4031 25.9844H13.0438L13.0516 25.9609C13.0516 24.7266 13.8953 23.8984 15.1609 23.8984C16.3953 23.8984 17.1531 24.7109 17.1531 25.8125V25.8359C17.1531 26.75 16.7234 27.3281 15.2313 28.8828L11.4891 32.8125V34ZM24.4859 34.2734C26.8609 34.2734 28.5328 32.6797 28.5328 30.3672V30.3516C28.5328 28.1875 27.0172 26.6094 24.9 26.6094C23.8609 26.6094 22.9781 27.0469 22.5016 27.8047H22.3688L22.7125 24.2109H27.8922V22.7266H21.3375L20.775 29.2734H22.2828C22.4156 29.0156 22.5953 28.7969 22.7984 28.6172C23.2438 28.2109 23.8297 28.0078 24.5172 28.0078C25.8766 28.0078 26.8609 28.9922 26.8609 30.3828V30.3984C26.8609 31.8125 25.8922 32.8047 24.5016 32.8047C23.2672 32.8047 22.3688 32.0156 22.2203 31.0234L22.2125 30.9609H20.5719L20.5797 31.0625C20.7359 32.8906 22.2672 34.2734 24.4859 34.2734ZM35.7609 28.75C37.2766 28.75 38.1984 27.5547 38.1984 25.6562V25.6484C38.1984 23.75 37.2766 22.5703 35.7609 22.5703C34.2453 22.5703 33.3234 23.75 33.3234 25.6484V25.6562C33.3234 27.5547 34.2453 28.75 35.7609 28.75ZM36.925 34L44.5656 22.7266H43.1047L35.4641 34H36.925ZM35.7609 27.7031C35.0188 27.7031 34.5969 26.9453 34.5969 25.6562V25.6484C34.5969 24.3672 35.0188 23.6172 35.7609 23.6172C36.5031 23.6172 36.9328 24.3672 36.9328 25.6484V25.6562C36.9328 26.9453 36.5031 27.7031 35.7609 27.7031ZM44.2609 34.1562C45.7766 34.1562 46.6984 32.9688 46.6984 31.0703V31.0625C46.6984 29.1641 45.7766 27.9766 44.2609 27.9766C42.7453 27.9766 41.8234 29.1641 41.8234 31.0625V31.0703C41.8234 32.9688 42.7453 34.1562 44.2609 34.1562ZM44.2609 33.1094C43.5188 33.1094 43.0969 32.3516 43.0969 31.0703V31.0625C43.0969 29.7734 43.5188 29.0234 44.2609 29.0234C45.0031 29.0234 45.425 29.7734 45.425 31.0625V31.0703C45.425 32.3516 45.0031 33.1094 44.2609 33.1094Z" fill="white"/>
</g>
<defs>
<filter id="filter0_b_68_1681" x="-36" y="-36" width="130" height="117.506" filterUnits="userSpaceOnUse" color-interpolation-filters="sRGB">
<feFlood flood-opacity="0" result="BackgroundImageFix"/>
<feGaussianBlur in="BackgroundImageFix" stdDeviation="18"/>
<feComposite in2="SourceAlpha" operator="in" result="effect1_backgroundBlur_68_1681"/>
<feBlend mode="normal" in="SourceGraphic" in2="effect1_backgroundBlur_68_1681" result="shape"/>
</filter>
<filter id="filter1_b_68_1681" x="-24.6125" y="-13.5469" width="107.311" height="83.8203" filterUnits="userSpaceOnUse" color-interpolation-filters="sRGB">
<feFlood flood-opacity="0" result="BackgroundImageFix"/>
<feGaussianBlur in="BackgroundImageFix" stdDeviation="18"/>
<feComposite in2="SourceAlpha" operator="in" result="effect1_backgroundBlur_68_1681"/>
<feBlend mode="normal" in="SourceGraphic" in2="effect1_backgroundBlur_68_1681" result="shape"/>
</filter>
</defs>
</svg>
